<?xml version="1.0" standalone="no"?>
<!DOCTYPE svg PUBLIC "-//W3C//DTD SVG 20010904//EN"
 "http://www.w3.org/TR/2001/REC-SVG-20010904/DTD/svg10.dtd">
<svg version="1.0" xmlns="http://www.w3.org/2000/svg"
 width="700.000000pt" height="700.000000pt" viewBox="0 0 700.000000 700.000000"
 preserveAspectRatio="xMidYMid meet">
<metadata>
Created by potrace 1.14, written by Peter Selinger 2001-2017
</metadata>
<g transform="translate(0.000000,700.000000) scale(0.100000,-0.100000)"
fill="#000000" stroke="none">
<path d="M1430 6993 c-94 -10 -260 -47 -352 -79 -238 -82 -423 -199 -609 -384
-234 -234 -375 -497 -441 -823 l-23 -112 0 -2095 0 -2095 23 -112 c132 -653
634 -1147 1287 -1269 96 -18 193 -19 2190 -19 l2090 0 112 23 c216 43 409 124
593 246 132 88 329 282 417 411 121 179 209 387 255 602 l23 108 3 1995 c2
1467 0 2024 -8 2104 -83 772 -686 1389 -1458 1491 -97 13 -387 15 -2090 13
-1087 0 -1993 -3 -2012 -5z m2410 -508 c689 -79 1308 -381 1797 -876 718 -727
1011 -1730 802 -2744 -48 -229 -128 -455 -249 -700 -360 -730 -998 -1279
-1779 -1530 -523 -167 -1107 -185 -1643 -50 -421 106 -781 285 -1138 563 -126
99 -406 382 -501 507 -352 463 -549 948 -614 1510 -17 151 -20 491 -4 633 75
698 360 1306 843 1800 487 499 1105 802 1806 887 152 19 517 18 680 0z"/>
</g>
</svg>
