<svg width="577" height="510" viewBox="0 0 577 510" fill="none" xmlns="http://www.w3.org/2000/svg">
<path d="M238.141 406.433H220.772V509.854H238.141V406.433Z" fill="#A95373"/>
<path d="M576.044 157.497H471.775V174.699H576.044V157.497Z" fill="#A95373"/>
<path d="M263.003 404.302L281.08 506.138L298.187 503.15L280.084 401.288L263.003 404.302Z" fill="#A95373"/>
<path d="M569.268 97.9472L466.583 115.906L469.6 132.872L572.284 114.914L569.268 97.9472Z" fill="#A95373"/>
<path d="M304.16 394.871L339.841 492.081L356.137 486.208L320.481 389.024L304.16 394.871Z" fill="#A95373"/>
<path d="M460.118 91.9874L542.773 62.1824C537.35 57.9208 531.796 53.7892 526.137 49.8654L454.171 75.8506L460.118 92.0133V91.9874Z" fill="#A95373"/>
<path d="M358.099 369.934L343.079 378.535L395.226 468.123L410.246 459.522L358.099 369.934Z" fill="#A95373"/>
<path d="M15.2474 278.821L2.98668 285.837C2.25313 292.697 1.72917 299.635 1.41479 306.625L23.919 293.736L15.2212 278.847L15.2474 278.821Z" fill="#A95373"/>
<path d="M443.639 53.3994L488.909 27.4922C482.7 24.296 476.387 21.2817 469.942 18.4493L434.967 38.4839L443.639 53.3994Z" fill="#A95373"/>
<path d="M378.536 355.737L445.603 434.991L458.886 423.896L391.845 344.693L378.536 355.737Z" fill="#A95373"/>
<path d="M38.2232 314.03L1.0481 344.952V367.429L49.4098 327.178L38.2232 314.03Z" fill="#A95373"/>
<path d="M420.663 18.2156L435.832 5.6128C429.178 3.53398 422.393 1.66305 415.581 0L409.529 5.04112L420.69 18.2156H420.663Z" fill="#A95373"/>
<path d="M409.477 327.178L489.381 393.674L500.541 380.474L420.663 314.03L409.477 327.178Z" fill="#A95373"/>
<path d="M0 423.895L1.04792 424.752V422.648L0 423.895Z" fill="#A95373"/>
<path d="M80.3498 355.736L67.0411 344.719L1.0481 422.648V424.753L13.335 434.991L80.3498 355.736Z" fill="#A95373"/>
<path d="M434.967 293.71L525.298 345.472L533.944 330.531L443.639 278.846L434.967 293.71Z" fill="#A95373"/>
<path d="M100.758 369.975L48.6239 459.494L63.6878 468.121L115.822 378.524L100.758 369.975Z" fill="#A95373"/>
<path d="M454.171 256.369L552.178 291.787L558.125 275.572L460.118 240.233L454.171 256.369Z" fill="#A95373"/>
<path d="M102.723 486.182L119.097 492.081L154.726 394.87L138.431 389.05L102.723 486.182Z" fill="#A95373"/>
<path d="M466.562 216.3L569.285 234.282L572.298 217.288L469.601 199.41L466.562 216.3Z" fill="#A95373"/>
<path d="M160.7 503.149L177.833 506.138L195.91 404.276L178.829 401.34L160.7 503.149Z" fill="#A95373"/>
</svg>
