<svg width="80" height="84" viewBox="0 0 80 84" fill="none" xmlns="http://www.w3.org/2000/svg">
<path d="M32 84V68C32 65.8784 32.8428 63.8436 34.3432 62.3432C35.8436 60.8428 37.8784 56 40 56C42.1216 56 44.1564 60.8428 45.6568 62.3432C47.1572 63.8436 48 65.8784 48 68V84H64V36C64 35.3096 63.8212 34.6312 63.4812 34.0308C63.1412 33.43 62.6516 32.9276 62.06 32.572L44 21.736V16H52V8H44V0H36V8H28V16H36V21.736L17.94 32.572C17.3484 32.9276 16.8588 33.43 16.5188 34.0308C16.1789 34.6312 16.0001 35.3096 16 36V84H32ZM4 84H12V47.528L2.212 52.424C1.54708 52.7552 0.987801 53.2656 0.597001 53.8972C0.206241 54.5288 -0.000519022 55.2572 9.78432e-07 56V80C9.78432e-07 81.0608 0.421441 82.0784 1.17156 82.8284C1.92172 83.5784 2.93912 84 4 84ZM77.788 52.42L68 47.528V84H76C77.0608 84 78.0784 83.5784 78.8284 82.8284C79.5784 82.0784 80 81.0608 80 80V56C80 54.484 79.144 53.1 77.788 52.42Z" fill="black"/>
</svg>
