<svg width="76" height="80" viewBox="0 0 76 80" fill="none" xmlns="http://www.w3.org/2000/svg">
<path d="M72.3314 47.1979L68.6881 44.4401C67.4863 43.5286 66.8847 42.1302 66.89 41.7604C66.9043 41.6458 66.9121 41.5313 66.9121 41.4167V38.5833C66.9121 38.4688 66.9069 38.3802 66.8926 38.2656C66.8847 37.8698 67.4863 36.4688 68.6881 35.5573L72.3301 32.7995C75.1725 30.6484 76.0006 26.5469 74.2194 23.4635L70.2181 16.5339C68.5058 13.5677 64.3626 12.1589 61.1881 13.5026L56.9772 15.2786C55.7767 15.7839 53.8821 15.5651 53.7584 15.4974C53.6673 15.4271 53.5722 15.362 53.472 15.3047L51.0189 13.888C50.9199 13.8307 50.8405 13.7917 50.735 13.7474C50.3874 13.5547 49.4746 12.3333 49.2871 10.8385L48.7246 6.33073C48.7233 6.32292 48.722 6.3125 48.7207 6.30469C48.278 2.76823 45.1413 0 41.5788 0H33.5788C30.0163 0 26.8795 2.76823 26.4368 6.30469L26.515 6.3125C26.3079 7.32813 26.1269 8.77344 25.8691 10.8359C25.6803 12.3333 24.7689 13.5547 24.4459 13.737C24.3405 13.7813 24.2376 13.8307 24.1387 13.888L21.6855 15.3047C21.5866 15.362 21.5137 15.4089 21.4225 15.4792C21.3392 15.5286 20.9394 15.6745 20.2311 15.6745C19.5254 15.6745 18.7754 15.5286 18.1751 15.276L13.9681 13.5026C10.7897 12.1667 6.65037 13.5703 4.93683 16.5365L0.938133 23.4661C-0.844419 26.5495 -0.0162945 30.651 2.82615 32.8021L6.46938 35.5599C7.67121 36.4714 8.27277 37.8698 8.26756 38.2396C8.25324 38.3542 8.24542 38.4688 8.24542 38.5833V41.4167C8.24542 41.5313 8.25063 41.6198 8.26496 41.7344C8.27277 42.1302 7.67121 43.5313 6.46938 44.4427L2.82746 47.2005C-0.0149924 49.3516 -0.843117 53.4531 0.938133 56.5365L4.93943 63.4661C6.65167 66.4297 10.7897 67.8307 13.9694 66.5L18.1803 64.724C19.3808 64.2109 21.2728 64.4349 21.3991 64.5026C21.4902 64.5729 21.5853 64.638 21.6855 64.6953L24.1387 66.112C24.2376 66.1693 24.317 66.2083 24.4225 66.2526C24.7702 66.4453 25.6829 67.6667 25.8704 69.1641L26.4381 73.6953C26.8808 77.2318 30.0176 80 33.5801 80H41.5801C45.1439 80 48.2819 77.2292 48.722 73.6953L49.2897 69.1615C49.4772 67.6667 50.3874 66.4453 50.7103 66.263C50.817 66.2188 50.9199 66.1693 51.0189 66.112L53.472 64.6953C53.5709 64.638 53.6439 64.5911 53.7337 64.5208C53.9004 64.4219 55.778 64.2135 56.9824 64.724L61.1894 66.4974C64.3652 67.8307 68.5071 66.4297 70.2207 63.4635L74.2194 56.5339C76.0019 53.4505 75.1738 49.349 72.3314 47.1979ZM37.5788 50.6667C31.6972 50.6667 26.9121 45.8802 26.9121 40C26.9121 34.1198 31.6972 29.3333 37.5788 29.3333C43.4603 29.3333 48.2454 34.1198 48.2454 40C48.2454 45.8802 43.4603 50.6667 37.5788 50.6667Z" fill="black"/>
</svg>
