<svg width="70" height="80" viewBox="0 0 70 80" fill="none" xmlns="http://www.w3.org/2000/svg">
<path d="M69.3628 78.6426L56.3347 49.033L58.434 29.1393C58.7298 26.3439 58.2583 23.5207 57.0702 20.973L47.9891 1.48965C47.8458 1.18254 47.6435 0.906644 47.3936 0.67773C47.1437 0.448816 46.8512 0.271362 46.5327 0.155501C46.2143 0.0396405 45.8761 -0.0123587 45.5375 0.00247265C45.199 0.017304 44.8666 0.0986755 44.5595 0.241941C43.9442 0.528214 43.3915 0.93301 42.9328 1.43316C42.4742 1.93331 42.1187 2.519 41.8867 3.15671C41.6546 3.79441 41.5507 4.47162 41.5807 5.14956C41.6107 5.8275 41.7741 6.49286 42.0615 7.10758L49.2871 22.6001C50.1454 23.2874 50.7864 24.2084 51.1326 25.2521C51.4788 26.2957 51.5154 27.4173 51.2381 28.4813L47.691 42.0887C47.6208 42.3307 47.4589 42.5358 47.2398 42.6603C47.0207 42.7848 46.7616 42.8189 46.5177 42.7554C46.2738 42.6919 46.0644 42.5357 45.9338 42.3201C45.8033 42.1045 45.7621 41.8465 45.8188 41.6009L49.362 27.9935C49.6097 27.0427 49.4818 26.033 49.0046 25.174C48.5275 24.315 47.7379 23.6728 46.7997 23.3808C45.8615 23.0887 44.8469 23.1692 43.9665 23.6055C43.0861 24.0418 42.4076 24.8005 42.0718 25.7239L36.4681 41.1158C35.8885 42.7082 35.6282 44.3991 35.7022 46.0921C35.7761 47.785 36.1828 49.4469 36.8991 50.9826L50.1697 79.4426C50.2478 79.6094 50.3718 79.7504 50.5272 79.8491C50.6826 79.9478 50.863 80.0002 51.0471 80H68.4776C68.6385 79.9999 68.7968 79.9597 68.9382 79.883C69.0796 79.8063 69.1997 79.6956 69.2876 79.5609C69.3755 79.4261 69.4283 79.2716 69.4415 79.1113C69.4546 78.9509 69.4276 78.7899 69.3628 78.6426Z" fill="black"/>
<path d="M41.7027 22.8565C42.7715 21.8422 44.1879 21.2753 45.6614 21.272C45.9639 21.2721 46.2659 21.2963 46.5646 21.3443L40.3079 7.92526C39.7219 6.66897 39.5187 5.268 39.7234 3.89697C39.3614 3.90204 39.0045 3.98292 38.6757 4.13439C37.434 4.71391 36.4732 5.76279 36.0045 7.05046C35.5359 8.33814 35.5977 9.75921 36.1764 11.0013L41.7027 22.8565Z" fill="black"/>
<path d="M30.7703 4.13683C30.4415 3.98536 30.0846 3.90448 29.7226 3.89941C29.9274 5.27044 29.7241 6.67141 29.1381 7.9277L22.8815 21.3467C23.1801 21.2987 23.4822 21.2745 23.7847 21.2745C25.2581 21.2777 26.6745 21.8446 27.7433 22.859L33.2709 11.0063C33.5578 10.3911 33.7207 9.72536 33.7503 9.04715C33.78 8.36895 33.6757 7.69155 33.4435 7.05364C33.2113 6.41573 32.8557 5.82982 32.397 5.32935C31.9384 4.82888 31.3856 4.42366 30.7703 4.13683Z" fill="black"/>
<path d="M27.3742 25.7238C27.0384 24.8003 26.3599 24.0417 25.4795 23.6054C24.5991 23.169 23.5845 23.0886 22.6463 23.3806C21.7081 23.6727 20.9185 24.3149 20.4414 25.1739C19.9642 26.0328 19.8363 27.0425 20.084 27.9934L23.6259 41.6008C23.6905 41.8492 23.6539 42.1132 23.5239 42.3346C23.394 42.556 23.1814 42.7167 22.933 42.7814C22.6845 42.8461 22.4206 42.8094 22.1992 42.6795C21.9778 42.5495 21.817 42.337 21.7524 42.0885L18.2066 28.4811C17.9294 27.4179 17.9657 26.2971 18.3111 25.254C18.6566 24.2109 19.2965 23.2901 20.1537 22.6025L27.3793 7.11002C27.6668 6.4953 27.8302 5.82994 27.8602 5.152C27.8902 4.47406 27.7862 3.79685 27.5542 3.15915C27.3221 2.52144 26.9666 1.93576 26.508 1.4356C26.0494 0.935451 25.4966 0.530655 24.8813 0.244382C24.5742 0.101117 24.2419 0.0197454 23.9033 0.00491406C23.5647 -0.00991729 23.2266 0.0420819 22.9081 0.157943C22.5896 0.273804 22.2971 0.451257 22.0472 0.680171C21.7973 0.909085 21.595 1.18498 21.4517 1.49209L12.3707 20.9755C11.1826 23.5231 10.7111 26.3463 11.0068 29.1417L13.11 49.0329L0.081921 78.6425C0.0171456 78.7897 -0.0099006 78.9508 0.00322875 79.1111C0.0163581 79.2714 0.0692493 79.426 0.157117 79.5607C0.244985 79.6955 0.365058 79.8062 0.506476 79.8829C0.647894 79.9595 0.806195 79.9997 0.967061 79.9999H18.3976C18.5817 80 18.7621 79.9477 18.9175 79.849C19.0729 79.7502 19.1969 79.6092 19.275 79.4424L32.5456 50.9825C33.2619 49.4467 33.6686 47.7849 33.7425 46.0919C33.8165 44.399 33.5562 42.708 32.9766 41.1156L27.3742 25.7238Z" fill="black"/>
</svg>
