<svg width="577" height="510" viewBox="0 0 577 510" fill="none" xmlns="http://www.w3.org/2000/svg">
<path d="M238.14 406.431H220.77V509.851H238.14V406.431Z" fill="#EAC1A2"/>
<path d="M576.04 157.496H471.772V174.698H576.04V157.496Z" fill="#EAC1A2"/>
<path d="M263.001 404.299L281.078 506.135L298.185 503.146L280.082 401.285L263.001 404.299Z" fill="#EAC1A2"/>
<path d="M569.264 97.9465L466.58 115.905L469.596 132.872L572.28 114.913L569.264 97.9465Z" fill="#EAC1A2"/>
<path d="M304.158 394.868L339.84 492.078L356.135 486.205L320.479 389.021L304.158 394.868Z" fill="#EAC1A2"/>
<path d="M460.114 91.9868L542.769 62.182C537.346 57.9205 531.792 53.7888 526.133 49.8651L454.167 75.8501L460.114 92.0128V91.9868Z" fill="#EAC1A2"/>
<path d="M358.096 369.932L343.077 378.533L395.224 468.12L410.243 459.519L358.096 369.932Z" fill="#EAC1A2"/>
<path d="M15.2471 278.819L2.98643 285.835C2.25288 292.695 1.72893 299.633 1.41455 306.623L23.9186 293.734L15.2209 278.845L15.2471 278.819Z" fill="#EAC1A2"/>
<path d="M443.636 53.399L488.906 27.492C482.697 24.2958 476.383 21.2816 469.939 18.4492L434.964 38.4836L443.636 53.399Z" fill="#EAC1A2"/>
<path d="M378.533 355.734L445.6 434.988L458.883 423.893L391.842 344.691L378.533 355.734Z" fill="#EAC1A2"/>
<path d="M38.2228 314.028L1.04791 344.95V367.427L49.4093 327.176L38.2228 314.028Z" fill="#EAC1A2"/>
<path d="M420.661 18.2155L435.829 5.61276C429.175 3.53396 422.39 1.66304 415.578 0L409.527 5.04109L420.687 18.2155H420.661Z" fill="#EAC1A2"/>
<path d="M409.474 327.176L489.378 393.672L500.538 380.471L420.66 314.028L409.474 327.176Z" fill="#EAC1A2"/>
<path d="M0 423.892L1.04792 424.75V422.645L0 423.892Z" fill="#EAC1A2"/>
<path d="M80.3491 355.734L67.0405 344.716L1.04791 422.645V424.75L13.3347 434.988L80.3491 355.734Z" fill="#EAC1A2"/>
<path d="M434.964 293.708L525.295 345.47L533.94 330.529L443.636 278.845L434.964 293.708Z" fill="#EAC1A2"/>
<path d="M100.757 369.973L48.6236 459.491L63.6874 468.118L115.821 378.522L100.757 369.973Z" fill="#EAC1A2"/>
<path d="M454.167 256.368L552.174 291.785L558.121 275.571L460.114 240.231L454.167 256.368Z" fill="#EAC1A2"/>
<path d="M102.722 486.179L119.096 492.078L154.725 394.868L138.43 389.047L102.722 486.179Z" fill="#EAC1A2"/>
<path d="M466.559 216.299L569.281 234.28L572.294 217.286L469.598 199.408L466.559 216.299Z" fill="#EAC1A2"/>
<path d="M160.698 503.146L177.832 506.134L195.908 404.273L178.827 401.337L160.698 503.146Z" fill="#EAC1A2"/>
</svg>
